# xmcd
#
# Track frame offsets: 
#        187
#        18140
#        30737
#        50400
#        67807
#        88497
#        106150
#        120577
#        132630
#        148935
#
# Disc length: 2220 seconds
#
# Revision: 0
# Processed by: cddbd v1.4PL0 Copyright (c) Steve Scherf et al.
# Submitted via: ExactAudioCopy v0.90b4
#
DISCID=8a08aa0a
DTITLE=New Grass Revival - Anthology
DYEAR=1990
DGENRE=Bluegrass
TTITLE0=Can't Stop Now
TTITLE1=Ain't That Peculiar
TTITLE2=Angel Eyes
TTITLE3=Revival
TTITLE4=Metric Lips
TTITLE5=Reach
TTITLE6=You Plant Your Fields
TTITLE7=Callin' Baton Rouge
TTITLE8=Hold To A Dream
TTITLE9=Friday Night In America
EXTD=
EXTT0=
EXTT1=
EXTT2=
EXTT3=
EXTT4=
EXTT5=
EXTT6=
EXTT7=
EXTT8=
EXTT9=
PLAYORDER=
